<svg width="1203" height="296" viewBox="0 0 1203 296" fill="none" xmlns="http://www.w3.org/2000/svg">
<path d="M113.345 201.567C102.539 196.02 93.6254 188.585 85.1146 180.543C70.5879 166.816 53.3292 159.58 33.2394 159.422C28.5757 159.385 23.9072 159.293 19.2491 159.457C15.627 159.585 14.2218 158.181 14.2427 154.484C14.31 142.57 16.3094 130.925 19.5098 119.555C34.4628 66.4278 67.8942 29.832 120.387 13.0259C173.941 -4.11962 223.492 6.09831 266.902 42.1036C297.644 67.6017 314.197 101.218 319.612 140.518C320.246 145.119 320.305 149.796 320.717 154.43C321.047 158.133 319.363 159.407 315.762 159.437C308.108 159.5 300.428 158.881 292.8 159.884C275.335 162.181 260.652 169.899 248.067 182.205C230.542 199.344 209.481 209.794 185.279 213.747C160.072 217.863 136.259 213.401 113.345 201.567ZM94.8423 138.205C93.5943 142.88 92.8846 147.63 92.4782 152.458C92.135 156.534 93.5513 158.163 97.782 158.075C107.94 157.865 118.106 158 128.269 158.001C164.255 158.004 200.241 157.968 236.227 158.071C240.435 158.083 242.835 157.342 242.504 152.308C242.195 147.612 241.261 143.121 240.168 138.587C231.472 102.528 191.282 76.73 154.889 84.1156C124.66 90.2499 104.803 108.211 94.8423 138.205Z" fill="#F66F00"/>
<path d="M133.316 243.508C166.396 258.163 196.334 252.735 222.31 228.03C247.382 204.183 277.648 194.464 311.883 195.981C314.917 196.115 315.68 197.418 314.895 200.137C311.555 211.699 307.139 222.808 301.146 233.273C300.059 235.172 298.406 235.401 296.514 235.576C277.526 237.328 261.644 245.261 247.851 258.497C222.992 282.352 193.151 293.243 158.617 290.726C129.783 288.624 105.52 276.772 85.0209 256.594C72.4474 244.217 57.0531 237.524 39.5951 235.747C36.1527 235.396 34.1706 234.185 32.6534 231.195C27.972 221.972 23.6302 212.629 20.8139 202.636C20.268 200.699 19.8127 198.806 20.294 196.294C32.8027 195.709 45.1669 195.669 57.4422 198.523C80.2861 203.833 99.9139 214.814 116.313 231.551C121.167 236.506 127.061 239.928 133.316 243.508Z" fill="#F66F00"/>
<path d="M438.358 267.856C434.997 267.856 433.317 267.856 432.034 267.202C430.905 266.627 429.987 265.709 429.412 264.58C428.758 263.296 428.758 261.616 428.758 258.256V37.7443C428.758 34.384 428.758 32.7038 429.412 31.4203C429.987 30.2914 430.905 29.3735 432.034 28.7982C433.317 28.1443 434.997 28.1443 438.358 28.1443H574.314C577.674 28.1443 579.354 28.1443 580.638 28.7982C581.767 29.3735 582.685 30.2914 583.26 31.4203C583.914 32.7038 583.914 34.384 583.914 37.7443V54.5924C583.914 57.9527 583.914 59.6328 583.26 60.9163C582.685 62.0453 581.767 62.9632 580.638 63.5384C579.354 64.1924 577.674 64.1924 574.314 64.1924H480.06C477.068 64.1924 475.572 64.1924 474.36 64.7613C473.308 65.2553 472.388 66.0814 471.784 67.0744C471.089 68.2181 470.932 69.6727 470.618 72.582C468.706 90.3088 468.768 102.909 470.633 120.396C470.945 123.32 471.101 124.782 471.796 125.927C472.4 126.923 473.318 127.748 474.373 128.243C475.585 128.813 477.086 128.813 480.086 128.813H550.29C553.65 128.813 555.33 128.813 556.614 129.467C557.743 130.042 558.661 130.96 559.236 132.089C559.89 133.373 559.89 135.053 559.89 138.413V153.766C559.89 157.126 559.89 158.807 559.236 160.09C558.661 161.219 557.743 162.137 556.614 162.712C555.33 163.366 553.65 163.366 550.29 163.366H480.233C477.185 163.366 475.661 163.366 474.44 163.945C473.375 164.451 472.46 165.284 471.857 166.297C471.166 167.458 471.025 168.953 470.743 171.945C468.955 190.9 468.8 204.353 470.685 223.328C470.977 226.27 471.124 227.741 471.817 228.895C472.419 229.899 473.339 230.732 474.397 231.232C475.615 231.808 477.123 231.808 480.141 231.808H574.314C577.674 231.808 579.354 231.808 580.638 232.462C581.767 233.037 582.685 233.955 583.26 235.084C583.914 236.367 583.914 238.047 583.914 241.408V258.256C583.914 261.616 583.914 263.296 583.26 264.58C582.685 265.709 581.767 266.627 580.638 267.202C579.354 267.856 577.674 267.856 574.314 267.856H438.358Z" fill="#F66F00"/>
<path d="M630.725 267.856C627.364 267.856 625.684 267.856 624.401 267.202C623.272 266.627 622.354 265.709 621.779 264.58C621.125 263.296 621.125 261.616 621.125 258.256V37.7443C621.125 34.384 621.125 32.7038 621.779 31.4203C622.354 30.2914 623.272 29.3735 624.401 28.7982C625.684 28.1443 627.364 28.1443 630.725 28.1443H654.384C657.744 28.1443 659.424 28.1443 660.708 28.7982C661.837 29.3735 662.755 30.2914 663.33 31.4203C663.984 32.7038 663.984 34.384 663.984 37.7443V222.208C663.984 225.568 663.984 227.248 664.638 228.532C665.213 229.661 666.131 230.578 667.26 231.154C668.543 231.808 670.223 231.808 673.584 231.808H763.026C766.387 231.808 768.067 231.808 769.35 232.462C770.479 233.037 771.397 233.955 771.972 235.084C772.626 236.367 772.626 238.047 772.626 241.408V258.256C772.626 261.616 772.626 263.296 771.972 264.58C771.397 265.709 770.479 266.627 769.35 267.202C768.067 267.856 766.387 267.856 763.026 267.856H630.725Z" fill="#F66F00"/>
<path d="M813.125 267.856C809.764 267.856 808.084 267.856 806.801 267.202C805.672 266.627 804.754 265.709 804.179 264.58C803.525 263.296 803.525 261.616 803.525 258.256V37.7443C803.525 34.384 803.525 32.7038 804.179 31.4203C804.754 30.2914 805.672 29.3735 806.801 28.7982C808.084 28.1443 809.764 28.1443 813.125 28.1443H836.784C840.144 28.1443 841.824 28.1443 843.108 28.7982C844.237 29.3735 845.155 30.2914 845.73 31.4203C846.384 32.7038 846.384 34.384 846.384 37.7443V222.208C846.384 225.568 846.384 227.248 847.038 228.532C847.613 229.661 848.531 230.578 849.66 231.154C850.943 231.808 852.623 231.808 855.984 231.808H945.426C948.787 231.808 950.467 231.808 951.75 232.462C952.879 233.037 953.797 233.955 954.372 235.084C955.026 236.367 955.026 238.047 955.026 241.408V258.256C955.026 261.616 955.026 263.296 954.372 264.58C953.797 265.709 952.879 266.627 951.75 267.202C950.467 267.856 948.787 267.856 945.426 267.856H813.125Z" fill="#F66F00"/>
<path d="M982.941 267.856C978.353 267.856 976.059 267.856 974.571 266.893C973.269 266.051 972.344 264.738 971.99 263.229C971.584 261.504 972.357 259.344 973.901 255.023L1052.75 34.5119C1053.57 32.2186 1053.98 31.072 1054.71 30.2259C1055.36 29.4785 1056.18 28.9017 1057.1 28.5465C1058.14 28.1443 1059.36 28.1443 1061.79 28.1443H1081.48C1084.84 28.1443 1086.52 28.1443 1087.8 28.7982C1088.93 29.3735 1089.85 30.2914 1090.42 31.4203C1091.08 32.7038 1091.08 34.384 1091.08 37.7443V63.6146C1091.08 64.7504 1091.08 65.3183 1091 65.7933C1090.59 68.3466 1088.59 70.3484 1086.04 70.7605C1085.56 70.8372 1084.99 70.8372 1083.86 70.8372C1083.01 70.8372 1082.59 70.8372 1082.21 70.8861C1080.18 71.1463 1078.43 72.4172 1077.55 74.2599C1077.39 74.6066 1077.26 75.0091 1076.99 75.814L1016.33 261.241C1015.55 263.619 1015.16 264.807 1014.43 265.687C1013.79 266.463 1012.96 267.065 1012.02 267.436C1010.96 267.856 1009.71 267.856 1007.21 267.856H982.941ZM1029.73 202.169C1024.01 203.304 1021.14 203.871 1019.37 203.048C1017.79 202.317 1016.66 201.017 1016.16 199.357C1015.58 197.487 1016.52 194.791 1018.39 189.4L1022.46 177.658C1023.07 175.893 1023.38 175.01 1023.91 174.286C1024.37 173.652 1024.97 173.098 1025.64 172.691C1026.41 172.227 1027.3 172.001 1029.08 171.55C1067.01 161.95 1090.43 161.864 1128.97 171.556C1130.76 172.005 1131.65 172.229 1132.42 172.694C1133.09 173.1 1133.7 173.655 1134.16 174.289C1134.69 175.015 1135 175.899 1135.61 177.668L1139.74 189.565C1141.59 194.908 1142.52 197.58 1141.95 199.446C1141.45 201.1 1140.32 202.405 1138.75 203.137C1136.99 203.964 1134.15 203.415 1128.48 202.318C1091.32 195.13 1065.42 195.102 1029.73 202.169ZM1150.87 267.856C1148.36 267.856 1147.11 267.856 1146.05 267.436C1145.11 267.065 1144.28 266.463 1143.64 265.687C1142.91 264.807 1142.52 263.619 1141.74 261.241L1079.93 72.2917C1079.75 71.7477 1079.66 71.4756 1079.6 71.1978C1079.54 70.9509 1079.5 70.7008 1079.48 70.4489C1079.45 70.1655 1079.45 69.8792 1079.45 69.3068V37.7443C1079.45 34.384 1079.45 32.7038 1080.1 31.4203C1080.68 30.2914 1081.6 29.3735 1082.73 28.7982C1084.01 28.1443 1085.69 28.1443 1089.05 28.1443H1096.44C1098.88 28.1443 1100.09 28.1443 1101.14 28.5469C1102.06 28.9024 1102.88 29.4798 1103.52 30.2278C1104.25 31.0747 1104.66 32.2223 1105.48 34.5174L1184.18 255.029C1185.72 259.348 1186.49 261.507 1186.09 263.231C1185.73 264.74 1184.81 266.052 1183.5 266.894C1182.02 267.856 1179.72 267.856 1175.14 267.856H1150.87Z" fill="#F66F00"/>
</svg>
